<svg xmlns="http://www.w3.org/2000/svg" viewBox="0 0 109 19" width="109" height="19">
	<style>
		tspan { white-space:pre }
		.shp0 { fill: #ffffff } 
	</style>
	<path id="ТЕХНОМАРТ" class="shp0" d="M0.42 2.31L4.2 2.31L4.2 18.06L6.33 18.06L6.33 2.31L10.12 2.31L10.12 0.56L0.42 0.56L0.42 2.31ZM14.25 9.81L19.45 9.81L19.45 8.06L14.25 8.06L14.25 2.31L20.16 2.31L20.16 0.56L12.12 0.56L12.12 18.06L20.16 18.06L20.16 16.31L14.25 16.31L14.25 9.81ZM26.96 7.56L24.36 0.56L22.23 0.56L25.42 9.06L21.88 18.06L24.01 18.06L26.96 10.56L29.92 18.06L32.04 18.06L28.5 9.06L31.69 0.56L29.56 0.56L26.96 7.56ZM41.2 0.56L41.2 8.31L36.24 8.31L36.24 0.56L34.11 0.56L34.11 18.06L36.24 18.06L36.24 10.06L41.2 10.06L41.2 18.06L43.33 18.06L43.33 0.56L41.2 0.56ZM48.87 0.73C48.25 1.02 47.72 1.5 47.28 2.18C46.84 2.87 46.5 3.79 46.27 4.94C46.05 6.1 45.93 7.56 45.93 9.31C45.93 11.06 46.05 12.51 46.27 13.67C46.5 14.83 46.84 15.75 47.28 16.43C47.72 17.11 48.25 17.6 48.87 17.88C49.5 18.16 50.21 18.31 51.01 18.31C51.82 18.31 52.53 18.16 53.15 17.88C53.78 17.6 54.31 17.11 54.75 16.43C55.19 15.75 55.53 14.83 55.76 13.67C55.98 12.51 56.1 11.06 56.1 9.31C56.1 7.56 55.98 6.1 55.76 4.94C55.53 3.79 55.19 2.87 54.75 2.18C54.31 1.5 53.78 1.02 53.15 0.73C52.53 0.45 51.82 0.31 51.01 0.31C50.21 0.31 49.5 0.45 48.87 0.73ZM49.9 16.48C49.54 16.26 49.23 15.87 48.96 15.31C48.69 14.74 48.47 13.97 48.31 13.01C48.14 12.04 48.06 10.81 48.06 9.31C48.06 7.81 48.14 6.57 48.31 5.61C48.47 4.64 48.69 3.87 48.96 3.31C49.23 2.74 49.54 2.35 49.9 2.13C50.27 1.92 50.64 1.81 51.01 1.81C51.39 1.81 51.76 1.92 52.13 2.13C52.49 2.35 52.8 2.74 53.07 3.31C53.34 3.87 53.56 4.64 53.72 5.61C53.89 6.57 53.97 7.81 53.97 9.31C53.97 10.81 53.89 12.04 53.72 13.01C53.56 13.97 53.34 14.74 53.07 15.31C52.8 15.87 52.49 16.26 52.13 16.48C51.76 16.7 51.39 16.81 51.01 16.81C50.64 16.81 50.27 16.7 49.9 16.48ZM66.77 15.81L70.2 5.06L70.32 5.06L71.02 18.06L73.15 18.06L72.21 0.56L69.61 0.56L65.75 12.56L65.66 12.56L61.8 0.56L59.2 0.56L58.26 18.06L60.38 18.06L61.09 5.06L61.21 5.06L64.64 15.81L66.77 15.81ZM83.02 13.56L84.09 18.06L86.21 18.06L82.19 0.56L79.12 0.56L75.1 18.06L77.23 18.06L78.29 13.56L83.02 13.56ZM82.67 11.81L78.65 11.81L80.61 3.06L80.7 3.06L82.67 11.81ZM90.45 11.18L90.45 1.93L92.11 1.93C92.64 1.93 93.1 2 93.49 2.14C93.87 2.29 94.19 2.53 94.45 2.88C94.7 3.23 94.88 3.71 95 4.31C95.12 4.91 95.18 5.66 95.18 6.56C95.18 7.46 95.12 8.21 95 8.81C94.88 9.41 94.7 9.88 94.45 10.23C94.19 10.58 93.87 10.83 93.49 10.97C93.1 11.11 92.64 11.18 92.11 11.18L90.45 11.18ZM90.45 12.68C90.75 12.75 91.13 12.81 91.59 12.86C92.04 12.91 92.45 12.93 92.81 12.93C93.59 12.93 94.25 12.83 94.81 12.62C95.37 12.41 95.84 12.06 96.21 11.57C96.58 11.08 96.85 10.42 97.04 9.61C97.22 8.79 97.31 7.77 97.31 6.56C97.31 5.37 97.21 4.38 97.02 3.58C96.83 2.78 96.53 2.14 96.12 1.66C95.71 1.17 95.18 0.83 94.52 0.62C93.86 0.41 93.05 0.31 92.11 0.31C91.4 0.31 90.74 0.34 90.13 0.42C89.52 0.49 88.92 0.62 88.32 0.81L88.32 18.06L90.45 18.06L90.45 12.68ZM98.7 2.31L102.48 2.31L102.48 18.06L104.61 18.06L104.61 2.31L108.39 2.31L108.39 0.56L98.7 0.56L98.7 2.31Z" />
</svg>